<svg>

<symbol xmlns="http://www.w3.org/2000/svg" width="15" height="10" viewBox="0 0 15 10" id="icon-filter">
  <path d="M0.833333 10H4.16667C4.625 10 5 9.625 5 9.16667C5 8.70833 4.625 8.33333 4.16667 8.33333H0.833333C0.375 8.33333 0 8.70833 0 9.16667C0 9.625 0.375 10 0.833333 10ZM0 0.833333C0 1.29167 0.375 1.66667 0.833333 1.66667H14.1667C14.625 1.66667 15 1.29167 15 0.833333C15 0.375 14.625 0 14.1667 0H0.833333C0.375 0 0 0.375 0 0.833333ZM0.833333 5.83333H9.16667C9.625 5.83333 10 5.45833 10 5C10 4.54167 9.625 4.16667 9.16667 4.16667H0.833333C0.375 4.16667 0 4.54167 0 5C0 5.45833 0.375 5.83333 0.833333 5.83333Z"/>
</symbol>

<symbol width="32" height="29" viewBox="0 0 32 29" xmlns="http://www.w3.org/2000/svg" id="icon-basket">
<path d="M26.2009 29C25.5532 28.9738 24.9415 28.6948 24.4972 28.2227C24.0529 27.7506 23.8114 27.1232 23.8245 26.475C23.8376 25.8269 24.1043 25.2097 24.5673 24.7559C25.0303 24.3022 25.6527 24.048 26.301 24.048C26.9493 24.048 27.5717 24.3022 28.0347 24.7559C28.4977 25.2097 28.7644 25.8269 28.7775 26.475C28.7906 27.1232 28.549 27.7506 28.1047 28.2227C27.6604 28.6948 27.0488 28.9738 26.401 29H26.2009ZM6.75293 26.32C6.75293 25.79 6.91011 25.2718 7.20459 24.8311C7.49907 24.3904 7.91764 24.0469 8.40735 23.844C8.89705 23.6412 9.43594 23.5881 9.95581 23.6915C10.4757 23.7949 10.9532 24.0502 11.328 24.425C11.7028 24.7998 11.9581 25.2773 12.0615 25.7972C12.1649 26.317 12.1118 26.8559 11.9089 27.3456C11.7061 27.8353 11.3626 28.2539 10.9219 28.5483C10.4812 28.8428 9.96304 29 9.43298 29C9.08087 29.0003 8.73212 28.9311 8.40674 28.7966C8.08136 28.662 7.78569 28.4646 7.53662 28.2158C7.28755 27.9669 7.09001 27.6713 6.9552 27.3461C6.82039 27.0208 6.75098 26.6721 6.75098 26.32H6.75293ZM10.553 20.686C10.2935 20.6868 10.0409 20.6024 9.83411 20.4457C9.62727 20.2891 9.47758 20.0689 9.40796 19.819L4.57495 2.36401H1.18201C0.868521 2.36401 0.567859 2.23947 0.346191 2.01781C0.124523 1.79614 0 1.49549 0 1.18201C0 0.868519 0.124523 0.567873 0.346191 0.346205C0.567859 0.124537 0.868521 5.81268e-06 1.18201 5.81268e-06H5.46301C5.7225 -0.00080736 5.97504 0.0837201 6.18176 0.240568C6.38848 0.397416 6.53784 0.617884 6.60693 0.868006L11.4399 18.323H24.6179L29.001 8.27501H14.401C14.2428 8.27961 14.0854 8.25242 13.9379 8.19507C13.7904 8.13771 13.6559 8.05134 13.5424 7.94108C13.4288 7.83082 13.3386 7.69891 13.277 7.55315C13.2154 7.40739 13.1836 7.25075 13.1836 7.0925C13.1836 6.93426 13.2154 6.77762 13.277 6.63186C13.3386 6.4861 13.4288 6.35419 13.5424 6.24393C13.6559 6.13367 13.7904 6.0473 13.9379 5.98994C14.0854 5.93259 14.2428 5.90541 14.401 5.91001H30.814C31.0097 5.90996 31.2022 5.95866 31.3744 6.05172C31.5465 6.14478 31.6928 6.27926 31.7999 6.44301C31.9078 6.60729 31.9734 6.79569 31.9908 6.99145C32.0083 7.18721 31.9771 7.38424 31.9 7.565L26.495 19.977C26.4026 20.1876 26.251 20.3668 26.0585 20.4927C25.866 20.6186 25.641 20.6858 25.411 20.686H10.553Z"/>
</symbol>

  <symbol width="13" height="16" viewBox="0 0 13 16" id="icon-pinterest"
    xmlns="http://www.w3.org/2000/svg">
    <path
      d="M6.7402 0.203125C3.55552 0.203125 0.408081 2.34063 0.408081 5.8C0.408081 8 1.63726 9.25 2.38221 9.25C2.68951 9.25 2.86643 8.3875 2.86643 8.14375C2.86643 7.85313 2.13079 7.23438 2.13079 6.025C2.13079 3.5125 4.03043 1.73125 6.48878 1.73125C8.60259 1.73125 10.167 2.94062 10.167 5.1625C10.167 6.82187 9.50585 9.93437 7.3641 9.93437C6.59121 9.93437 5.93006 9.37187 5.93006 8.56563C5.93006 7.38438 6.74951 6.24062 6.74951 5.02187C6.74951 2.95312 3.83487 3.32812 3.83487 5.82812C3.83487 6.35313 3.90006 6.93437 4.13286 7.4125C3.70451 9.26875 2.82919 12.0344 2.82919 13.9469C2.82919 14.5375 2.91299 15.1188 2.96886 15.7094C3.0744 15.8281 3.02163 15.8156 3.18304 15.7563C4.74744 13.6 4.69157 13.1781 5.39928 10.3562C5.78107 11.0875 6.76814 11.4812 7.55034 11.4812C10.8468 11.4812 12.3274 8.24688 12.3274 5.33125C12.3274 2.22813 9.66415 0.203125 6.7402 0.203125Z" />
  </symbol>

  <symbol width="17" height="14" viewBox="0 0 17 14"
    xmlns="http://www.w3.org/2000/svg" id="icon-twitter">
    <path
      d="M14.4181 3.74107C14.4281 3.88319 14.4281 4.02535 14.4281 4.16747C14.4281 8.50247 11.1509 13.4974 5.16096 13.4974C3.31558 13.4974 1.60132 12.9593 0.159302 12.0253C0.421495 12.0558 0.673569 12.0659 0.94585 12.0659C2.46851 12.0659 3.8702 11.5482 4.98953 10.6649C3.5576 10.6345 2.3576 9.69031 1.94415 8.39081C2.14585 8.42125 2.34751 8.44156 2.5593 8.44156C2.85172 8.44156 3.14418 8.40094 3.41643 8.32991C1.92401 8.02531 0.80465 6.70553 0.80465 5.11163V5.07103C1.23824 5.31469 1.74249 5.46697 2.2769 5.48725C1.39959 4.89841 0.824826 3.89335 0.824826 2.75628C0.824826 2.14716 0.98614 1.58878 1.26851 1.10147C2.87187 3.09131 5.28195 4.39078 7.98443 4.53294C7.93403 4.28928 7.90376 4.0355 7.90376 3.78169C7.90376 1.97457 9.35586 0.502502 11.1609 0.502502C12.0987 0.502502 12.9457 0.89844 13.5407 1.53803C14.2768 1.39591 14.9827 1.12178 15.6079 0.746159C15.3659 1.5076 14.8516 2.14719 14.176 2.55325C14.8315 2.48222 15.4668 2.29944 16.0516 2.04566C15.608 2.69538 15.0533 3.27403 14.4181 3.74107V3.74107Z" />
  </symbol>

  <symbol xmlns="http://www.w3.org/2000/svg" width="31" height="31" viewBox="0 0 31 31" id="icon-button-prev">
    <path d="M21.6998 7.7499L13.9498 15.4999L21.6998 23.2499L20.1498 26.3499L9.2998 15.4999L20.1498 4.6499L21.6998 7.7499Z"/>
  </symbol>

  <symbol xmlns="http://www.w3.org/2000/svg" width="11" height="6" viewBox="0 0 11 6" fill="none" id="icon-arrow">
<path d="M5.00214 5.64846C4.83521 5.64879 4.67343 5.59016 4.54488 5.48275L0.258102 1.88021C0.112196 1.75791 0.0204417 1.58217 0.00302325 1.39165C-0.0143952 1.20112 0.0439493 1.01143 0.165221 0.864289C0.286493 0.717149 0.460759 0.624619 0.649682 0.607053C0.838605 0.589487 1.02671 0.648325 1.17262 0.770623L5.00214 3.9985L8.83167 0.885905C8.90475 0.826055 8.98884 0.781361 9.0791 0.754391C9.16937 0.727421 9.26403 0.718707 9.35764 0.72875C9.45126 0.738794 9.54198 0.767396 9.6246 0.812913C9.70722 0.85843 9.7801 0.919965 9.83906 0.993981C9.90449 1.06806 9.95405 1.15498 9.98462 1.24927C10.0152 1.34357 10.0261 1.44321 10.0167 1.54197C10.0073 1.64073 9.97784 1.73646 9.93005 1.82318C9.88227 1.9099 9.81723 1.98573 9.73904 2.04592L5.45225 5.52598C5.32002 5.61641 5.16154 5.65954 5.00214 5.64846Z" fill="#6F6E6E"/>
</symbol>
</svg>
